<svg width="392" height="258" viewBox="0 0 392 258" fill="none" xmlns="http://www.w3.org/2000/svg">
    <path d="M342.437 231.976C342.437 218.556 353.316 207.678 366.735 207.678H367.702C381.122 207.678 392 218.556 392 231.976H342.437Z"
          fill="#4AC766"/>
    <path d="M283.862 232.381C283.862 207.982 303.642 188.203 328.041 188.203H329.798C354.198 188.203 373.977 207.982 373.977 232.381H283.862Z"
          fill="#0A8B3E"/>
    <path d="M49.563 232.38C49.563 218.961 38.6843 208.082 25.2647 208.082H24.2981C10.8785 208.082 -0.000244141 218.961 -0.000244141 232.38H49.563Z"
          fill="#4AC766"/>
    <path d="M115.647 232.381C115.647 207.982 95.8679 188.203 71.4687 188.203H69.7113C45.312 188.203 25.5325 207.982 25.5325 232.381H115.647Z"
          fill="#0A8B3E"/>
    <path d="M228.779 2.15332H200.848V20.6057H228.779V2.15332Z" fill="#D11911"/>
    <path d="M213.026 4.40967H228.091" stroke="#F9F9F9" stroke-width="1.31487" stroke-linecap="square"
          stroke-linejoin="bevel"/>
    <path d="M213.026 7.75098H228.091" stroke="#F9F9F9" stroke-width="1.31487" stroke-linecap="square"
          stroke-linejoin="bevel"/>
    <path d="M201.563 11.0918H228.091" stroke="#F9F9F9" stroke-width="1.31487" stroke-linecap="square"
          stroke-linejoin="bevel"/>
    <path d="M201.563 14.4702H228.086" stroke="#F9F9F9" stroke-width="1.31487" stroke-linecap="square"
          stroke-linejoin="bevel"/>
    <path d="M201.563 18.0864H228.086" stroke="#F9F9F9" stroke-width="1.31487" stroke-linecap="square"
          stroke-linejoin="bevel"/>
    <path d="M213.835 2.15332H200.848V11.831H213.835V2.15332Z" fill="#0850C4"/>
    <path d="M200.963 1.7627V54.6234" stroke="#212352" stroke-width="1.05847" stroke-linecap="square"
          stroke-linejoin="bevel"/>
    <path d="M201.97 1.23764C201.971 1.48323 201.902 1.72363 201.773 1.92848C201.643 2.13334 201.458 2.29347 201.241 2.38866C201.024 2.48385 200.784 2.50983 200.553 2.46333C200.322 2.41683 200.109 2.29993 199.942 2.12738C199.774 1.95483 199.659 1.73437 199.612 1.49384C199.564 1.2533 199.586 1.00346 199.675 0.775865C199.763 0.548269 199.914 0.353114 200.109 0.215036C200.304 0.0769582 200.533 0.00214681 200.769 4.5498e-05C200.925 -0.00135488 201.081 0.0295842 201.226 0.0910868C201.372 0.152589 201.504 0.243444 201.616 0.358435C201.727 0.473427 201.816 0.61029 201.877 0.761169C201.938 0.912047 201.969 1.07397 201.97 1.23764Z"
          fill="#212352"/>
    <path d="M150.691 94.3599C150.691 66.5415 173.242 43.9902 201.061 43.9902C228.879 43.9902 251.43 66.5415 251.43 94.3599V95.647H150.691V94.3599Z"
          fill="#A3D2FF"/>
    <path d="M191.275 44.8175C191.275 39.4138 195.656 35.0332 201.06 35.0332C206.463 35.0332 210.844 39.4138 210.844 44.8175V45.0675H191.275V44.8175Z"
          fill="#60ACF2"/>
    <rect x="129.77" y="90.6406" width="138.847" height="48.2889" fill="#86C5FF"/>
    <rect x="124.492" y="78.1709" width="150.18" height="12.9595" fill="#60ACF2"/>
    <rect x="140.325" y="96.4395" width="10.1374" height="37.9619" fill="#212352"/>
    <rect x="162.068" y="96.4395" width="10.1374" height="37.9619" fill="#212352"/>
    <rect x="183.812" y="96.4395" width="10.1374" height="37.9619" fill="#212352"/>
    <rect x="205.556" y="96.4395" width="10.1374" height="37.9619" fill="#212352"/>
    <rect x="227.299" y="96.4395" width="10.1374" height="37.9619" fill="#212352"/>
    <rect x="249.043" y="96.4395" width="10.1374" height="37.9619" fill="#212352"/>
    <rect x="81.771" y="141.034" width="233.631" height="72.0839" fill="#86C5FF"/>
    <rect x="75.0957" y="128.448" width="249.652" height="12.5861" fill="#60ACF2"/>
    <rect x="75.0957" y="210.829" width="249.652" height="21.7396" fill="#60ACF2"/>
    <rect x="95.709" y="145.229" width="10.8351" height="60.935" fill="#79BBFA"/>
    <rect x="118.449" y="145.229" width="10.8351" height="60.935" fill="#79BBFA"/>
    <rect x="141.188" y="145.229" width="10.8351" height="60.935" fill="#79BBFA"/>
    <rect x="163.928" y="145.229" width="10.8351" height="60.935" fill="#79BBFA"/>
    <rect x="223.197" y="145.229" width="10.8351" height="60.935" fill="#79BBFA"/>
    <rect x="245.937" y="145.229" width="10.8351" height="60.935" fill="#79BBFA"/>
    <rect x="268.676" y="145.229" width="10.8351" height="60.935" fill="#79BBFA"/>
    <rect x="291.416" y="145.229" width="10.8351" height="60.935" fill="#79BBFA"/>
    <rect x="130.479" y="154.836" width="137.926" height="58.1807" fill="#A3D2FF"/>
    <path d="M125.236 139.81L199.829 104.605L274.422 139.81V155.424H125.236V139.81Z" fill="#A3D2FF"/>
    <rect x="125.236" y="212.26" width="149.186" height="15.6142" fill="#60ACF2"/>
    <rect x="125.236" y="139.811" width="149.184" height="15.6142" fill="#60ACF2"/>
    <rect x="140.963" y="161.822" width="10.0702" height="45.7383" fill="#212352"/>
    <rect x="162.562" y="161.822" width="10.0702" height="45.7383" fill="#212352"/>
    <rect x="184.162" y="161.822" width="10.0702" height="45.7383" fill="#212352"/>
    <rect x="205.762" y="161.822" width="10.0702" height="45.7383" fill="#212352"/>
    <rect x="227.361" y="161.822" width="10.0702" height="45.7383" fill="#212352"/>
    <rect x="248.961" y="161.822" width="10.0702" height="45.7383" fill="#212352"/>
    <rect x="116.073" y="211.242" width="166.982" height="42.6546" fill="#CFE5FF"/>
    <rect x="116.482" y="254.118" width="3.595" height="166.88" transform="rotate(-90 116.482 254.118)" fill="#86C5FF"/>
    <rect x="131.167" y="246.721" width="3.67949" height="138.844" transform="rotate(-90 131.167 246.721)"
          fill="#86C5FF"/>
    <rect x="131.167" y="238.83" width="3.67949" height="138.844" transform="rotate(-90 131.167 238.83)"
          fill="#86C5FF"/>
    <rect x="131.167" y="230.938" width="3.67949" height="138.844" transform="rotate(-90 131.167 230.938)"
          fill="#86C5FF"/>
    <rect x="131.167" y="223.046" width="3.67949" height="138.844" transform="rotate(-90 131.167 223.046)"
          fill="#86C5FF"/>
    <path d="M295.674 197.624C296.174 197.051 296.481 196.373 296.563 195.664C296.645 194.954 296.498 194.238 296.138 193.594C295.006 191.525 294.422 189.27 294.427 186.988C294.426 184.713 295.005 182.464 296.123 180.397C297.241 178.33 298.873 176.493 300.906 175.012C301.736 174.445 302.311 173.651 302.534 172.766C302.757 171.881 302.613 170.957 302.128 170.151C301.121 168.616 300.583 166.891 300.563 165.134C300.564 162.353 301.83 159.68 304.097 157.674C306.364 155.669 309.456 154.486 312.726 154.373C314.934 154.318 317.12 154.76 319.062 155.654C321.005 156.548 322.634 157.863 323.786 159.465C324.938 161.067 325.571 162.899 325.62 164.775C325.67 166.652 325.135 168.507 324.069 170.151C323.576 170.95 323.421 171.869 323.63 172.754C323.839 173.639 324.4 174.436 325.218 175.012C328.286 177.248 330.411 180.273 331.272 183.629C332.132 186.984 331.68 190.487 329.986 193.604C329.627 194.256 329.484 194.978 329.572 195.694C329.66 196.41 329.977 197.091 330.487 197.665C333.697 201.225 335.278 205.654 334.936 210.13C334.557 214.941 331.995 219.439 327.788 222.676C323.582 225.913 318.061 227.636 312.389 227.481C306.717 227.326 301.338 225.306 297.385 221.846C293.432 218.386 291.215 213.757 291.2 208.935C291.184 204.849 292.756 200.872 295.674 197.624Z"
          fill="#124F1F"/>
    <path d="M311.79 184.253H314.174V257.677H311.79V184.253Z" fill="#212352"/>
</svg>
