<svg xmlns="http://www.w3.org/2000/svg" viewBox="0 0 199 30" width="199" height="30" fill-rule="evenodd">
    <path d="M136.108 5.893l6.356 23.513h-4.7l-1.218-5.334h-6.587l-1.284 5.334h-4.545l6.52-23.513h5.468zM133.275 10l-2.436 10.242h4.806L133.275 10zm-65.8 1.7c2.02 0 3.508.522 4.463 1.563s1.432 2.674 1.432 4.9v11.263h-3.95v-1.9c-.505.746-1.114 1.323-1.828 1.73a4.61 4.61 0 0 1-2.322.61c-1.405 0-2.502-.45-3.294-1.35S60.8 26.334 60.8 24.73c0-1.734.577-3.1 1.73-4.1s2.804-1.586 4.956-1.762l1.78-.132v-1.02c0-1.03-.153-1.788-.462-2.27s-.8-.725-1.482-.725c-.615 0-1.086.187-1.415.56s-.56.966-.7 1.78l-3.887-.33c.264-1.713.9-2.98 1.9-3.804s2.427-1.235 4.25-1.235zm1.78 9.78l-1.317.132c-.988.088-1.752.373-2.3.856s-.808 1.13-.808 1.943c0 .724.153 1.28.463 1.662s.756.577 1.35.577a2.25 2.25 0 0 0 1.894-.939c.472-.626.708-1.476.708-2.553v-1.68zm-25.26-9.78c2.064 0 3.617.714 4.66 2.14s1.563 3.535 1.563 6.323v1.68h-8.825c.044 3.338.9 5.005 2.536 5.005.66 0 1.152-.202 1.482-.608s.548-1.092.66-2.06h4.084c-.177 1.888-.797 3.322-1.86 4.298s-2.542 1.465-4.43 1.465c-2.282 0-3.972-.73-5.07-2.2s-1.647-3.716-1.647-6.768c0-3.03.58-5.334 1.745-6.915S41.762 11.7 44 11.7zm-.133 3.03c-.8 0-1.372.346-1.744 1.038s-.604 1.84-.7 3.442h4.676c0-1.56-.18-2.695-.544-3.4s-.927-1.07-1.696-1.07zM29.572 11.7c2.064 0 3.617.714 4.66 2.14s1.563 3.535 1.563 6.323v1.68H26.97c.044 3.338.9 5.005 2.536 5.005.66 0 1.152-.202 1.482-.608s.55-1.092.66-2.06h4.084c-.177 1.888-.797 3.322-1.86 4.298s-2.542 1.465-4.43 1.465c-2.282 0-3.972-.73-5.07-2.2s-1.647-3.716-1.647-6.768c0-3.03.58-5.334 1.745-6.915s2.867-2.37 5.105-2.37zm-.133 3.03c-.8 0-1.372.346-1.744 1.038s-.604 1.84-.7 3.442h4.676c0-1.56-.18-2.695-.544-3.4s-.927-1.07-1.696-1.07zM0 5.93v23.513h4.645v-9.55h7.3v-4.15h-7.3v-5.665h7.837V5.93zm13.7 23.477v-17.2h4.215v2.306c.46-.834 1-1.477 1.647-1.927s1.305-.675 2-.675c.352 0 .747.054 1.185.165l-.493 3.952c-.33-.087-.757-.132-1.285-.132a2.75 2.75 0 0 0-2.09.89c-.56.594-.84 1.33-.84 2.206v10.406H13.7zm39.813 0V10.043h-5.335v-4.15h15.315v4.15h-5.336v19.365zm30.792 0l-2.832-5.665-2.7 5.665h-4.28l4.84-8.727-4.545-8.464h4.6l2.47 5.204 2.536-5.204h4.282L84 20.45l4.908 8.957zm17.652-23.514h4.644v15.083c0 2.92-.68 5.155-2.04 6.702S101.233 30 98.664 30s-4.533-.773-5.896-2.322-2.04-3.78-2.04-6.702V5.893h4.644v15.413c0 1.537.27 2.68.807 3.424s1.366 1.12 2.486 1.12 1.948-.373 2.487-1.12.807-1.887.807-3.424V5.893zm12.118 13.14c-1.865-.548-3.237-1.377-4.116-2.486s-1.318-2.564-1.318-4.364c0-2.085.682-3.754 2.042-5.005s3.163-1.878 5.4-1.878c2.13 0 3.788.538 4.973 1.614s1.93 2.733 2.24 4.972l-4.414.594c-.22-1.23-.548-2.103-.987-2.62s-1.087-.774-1.943-.774-1.515.247-1.977.74-.7 1.224-.7 2.2c0 .813.175 1.444.527 1.894s.955.806 1.812 1.07l2.503.8c1.338.418 2.415.94 3.227 1.564a5.62 5.62 0 0 1 1.78 2.29c.376.9.56 1.977.56 3.228 0 2.196-.675 3.936-2.025 5.22S118.48 30 116.152 30c-4.897 0-7.5-2.547-7.84-7.64h4.612c.1 1.34.422 2.316.938 2.93s1.3.922 2.355.922c.9 0 1.597-.27 2.1-.807s.74-1.312.74-2.322c0-.9-.203-1.614-.6-2.14s-1.048-.92-1.926-1.185l-2.438-.724z"
          fill="#212f63"/>
    <path d="M140.638 5.893l1.207 4.25h49.07v-4.25zm2.7 9.463l1.213 4.25 46.373-.007v-4.25zm2.79 9.802l1.208 4.25h43.6v-4.25z"
          fill="#bf2032"/>
    <path d="M195.992 2.462h.33c.364 0 .546-.143.546-.432a.41.41 0 0 0-.115-.304c-.076-.076-.212-.115-.406-.115h-.354v.85zm-.52 1.295V1.18h.964c.27 0 .502.06.698.183s.29.336.29.64c0 .153-.042.294-.126.425s-.2.223-.343.273l.584 1.053h-.584l-.444-.89h-.52v.89h-.52zm.913.774a1.91 1.91 0 0 0 .743-.147c.232-.097.433-.234.6-.412a1.93 1.93 0 0 0 .4-.64 2.29 2.29 0 0 0 .147-.831 2.25 2.25 0 0 0-.147-.819c-.098-.25-.23-.465-.4-.648a1.81 1.81 0 0 0-.601-.425c-.234-.1-.48-.153-.743-.153a1.82 1.82 0 0 0-.748.153 1.77 1.77 0 0 0-.591.425 2.13 2.13 0 0 0-.394.648c-.097.25-.145.522-.145.82a2.29 2.29 0 0 0 .145.831c.098.25.23.462.394.64s.363.316.59.412a1.88 1.88 0 0 0 .748.147zm0 .47a2.32 2.32 0 0 1-.927-.184c-.288-.122-.538-.293-.754-.514a2.45 2.45 0 0 1-.515-.787c-.127-.304-.19-.643-.19-1.015s.062-.71.19-1.016a2.47 2.47 0 0 1 .515-.787 2.32 2.32 0 0 1 .754-.514c.288-.123.596-.184.927-.184a2.39 2.39 0 0 1 .933.184c.293.123.545.293.76.514s.388.483.515.787.2.643.2 1.016-.063.71-.2 1.015-.298.568-.515.787-.468.392-.76.514a2.37 2.37 0 0 1-.933.184z"
          fill="#212f63"/>
</svg>